<?xml version="1.0" encoding="UTF-8"?>
<svg id="Ebene_2" data-name="Ebene 2" xmlns="http://www.w3.org/2000/svg" viewBox="0 0 402.06 401.1">
  <defs>
    <style>
      .cls-1 {
        fill: #2b84c1;
      }
    </style>
  </defs>
  <g id="Ebene_1-2" data-name="Ebene 1">
    <path class="cls-1" d="M285.54,379.46c.04,2.82-1.03,4.18-3.53,5.22-23.42,9.78-47.49,15.66-73.15,16.32-31.08.81-61.01-3.35-89.19-16.52C52.01,352.84,11.26,299.94,1.73,225.98-13,111.63,68.36,17.06,171.42,2.11c20.56-2.99,41.09-2.71,61.64.25,4.17.61,5.24,1.56,3.25,5.87-39.04,84.81-77.91,169.71-116.86,254.56-1.51,3.27-2.29,6.5-2.27,10.13.11,20.79.15,41.59-.04,62.38-.04,3.86,1.17,4.77,4.84,4.75,26.52-.14,53.03-.07,79.54-.08,26.68,0,53.37.06,80.05-.09,1.83-.01,2.88.24,3.43,1.06.42.6.56,1.49.54,2.8-.05,3.75-.09,7.51-.1,11.27-.04,8.15,0,16.3.1,24.45Z"/>
    <path class="cls-1" d="M393.76,257.97c-.33,1.16-.69,2.18-1.13,3.04h-27.63v-106h-80v106h-73.79c4.35-9.68,8.7-19.39,13.09-29.12,29.04-64.29,58.13-128.56,87.04-192.9,1.84-4.06,3.06-4.26,6.54-1.68,46.3,34.23,73.79,79.67,82.21,136.62,4.22,28.5,1.48,56.43-6.33,84.04Z"/>
  </g>
</svg>